<svg width="322" height="277" viewBox="0 0 322 277" fill="none" xmlns="http://www.w3.org/2000/svg">
<path d="M29.2809 223.327H0.55247V231.835H10.4969V262H19.3364V231.835H29.2809V223.327ZM52.4868 253.492V246.641H66.2985V238.244H52.4868V231.835H67.6797V223.327H43.6473V262H67.9559V253.492H52.4868ZM101.623 262.773C108.695 262.773 114.882 259.293 118.197 253.823L110.573 249.404C108.916 252.387 105.545 254.155 101.623 254.155C94.7723 254.155 90.3525 249.569 90.3525 242.664C90.3525 235.758 94.7723 231.172 101.623 231.172C105.545 231.172 108.86 232.94 110.573 235.923L118.197 231.504C114.827 226.034 108.639 222.554 101.623 222.554C89.9658 222.554 81.513 231.283 81.513 242.664C81.513 254.044 89.9658 262.773 101.623 262.773ZM153.83 223.327V238.133H141.676V223.327H132.837V262H141.676V246.641H153.83V262H162.67V223.327H153.83ZM179.805 223.327V262H188.645V223.327H179.805ZM214.626 253.492V223.327H205.786V262H228.438V253.492H214.626ZM268.492 262H278.16L265.011 223.327H253.741L240.592 262H250.26L252.194 255.923H266.558L268.492 262ZM254.846 247.636L259.376 233.437L263.906 247.636H254.846ZM315.932 241.945C318.031 240.122 319.302 237.581 319.302 234.377C319.302 227.692 313.832 223.327 307.092 223.327H291.954V262H308.197C315.103 262 320.683 257.525 320.683 250.674C320.683 246.752 318.804 243.768 315.932 241.945ZM307.092 231.614C309.136 231.614 310.462 233.051 310.462 235.039C310.462 237.028 309.081 238.465 307.092 238.465H300.794V231.614H307.092ZM308.197 253.713H300.794V246.31H308.197C310.407 246.31 311.843 247.857 311.843 250.011C311.843 252.166 310.407 253.713 308.197 253.713Z" fill="#363557"/>
<path d="M78.6009 34H226L207.575 67.8474H133.288L95.8498 132L76.6408 99.3333L96.1438 67.8474H59L78.6009 34Z" fill="#363557"/>
<path d="M180 84H143.196L106 148.525L124.402 180H161.206L143.196 148.525L180 84Z" fill="#0F9E90"/>
<path d="M227 14H248V29C248 31.7614 245.761 34 243 34H227V14Z" fill="#363557"/>
<path d="M249 0H263V13H249V0Z" fill="#0F9E90"/>
</svg>
